<?xml version="1.0" standalone="no"?><!DOCTYPE svg PUBLIC "-//W3C//DTD SVG 1.1//EN" "http://www.w3.org/Graphics/SVG/1.1/DTD/svg11.dtd"><svg t="1754444394168" class="icon" viewBox="0 0 1024 1024" version="1.1" xmlns="http://www.w3.org/2000/svg" p-id="8144" xmlns:xlink="http://www.w3.org/1999/xlink" width="200" height="200"><path d="M775 241H258a32 32 0 0 1 0-64h517a32 32 0 0 1 0 64z" fill="#333333" p-id="8145"></path><path d="M123.47 476a32 32 0 0 1-27.74-47.9l134.5-235a32 32 0 1 1 55.54 31.8l-134.5 235a32 32 0 0 1-27.8 16.1zM909.53 476a32 32 0 0 1-27.8-16.11l-134.5-235a32 32 0 0 1 55.54-31.8l134.5 235A32 32 0 0 1 909.53 476zM721.86 307.16H311.14a25 25 0 0 1 0-50h410.72a25 25 0 0 1 0 50z" fill="#333333" p-id="8146"></path><path d="M204.27 490.85a25 25 0 0 1-21.69-37.4L285.29 273.6a25 25 0 0 1 43.42 24.8L226 478.24a25 25 0 0 1-21.73 12.61zM828.73 490.85a25 25 0 0 1-21.64-12.46L700.38 294.55a25 25 0 0 1 43.24-25.1l106.71 183.84a25 25 0 0 1-21.6 37.56zM124 872a32 32 0 0 1-32-32V444a32 32 0 0 1 64 0v396a32 32 0 0 1-32 32zM909 872a32 32 0 0 1-32-32V444a32 32 0 0 1 64 0v396a32 32 0 0 1-32 32z" fill="#333333" p-id="8147"></path><path d="M284 874H124a32 32 0 0 1 0-64h160a32 32 0 0 1 0 64z" fill="#333333" p-id="8148"></path><path d="M290 874a32 32 0 0 1-32-32V727a32 32 0 0 1 64 0v115a32 32 0 0 1-32 32zM909 874H749a32 32 0 0 1 0-64h160a32 32 0 0 1 0 64z" fill="#333333" p-id="8149"></path><path d="M743 874a32 32 0 0 1-32-32V727a32 32 0 0 1 64 0v115a32 32 0 0 1-32 32z" fill="#333333" p-id="8150"></path><path d="M743 759H290a32 32 0 0 1 0-64h453a32 32 0 0 1 0 64zM287.41 665a76 76 0 1 1 76-76 76.08 76.08 0 0 1-76 76z m0-112a36 36 0 1 0 36 36 36 36 0 0 0-36-36zM745.59 665a76 76 0 1 1 76-76 76.09 76.09 0 0 1-76 76z m0-112a36 36 0 1 0 36 36 36 36 0 0 0-36-36zM829 490.84H204a25 25 0 1 1 0-50h625a25 25 0 0 1 0 50zM185 356a20 20 0 0 1-9-2.15l-50.09-25.3a20 20 0 1 1 18-35.7l50.1 25.3A20 20 0 0 1 185 356zM154.06 417a19.92 19.92 0 0 1-9-2.15L95 389.59a20 20 0 0 1 18-35.7l50.09 25.3a20 20 0 0 1-9 37.85z" fill="#333333" p-id="8151"></path><path d="M135 331H67a20 20 0 0 1 0-40h68a20 20 0 0 1 0 40zM103 391H66a20 20 0 0 1 0-40h37a20 20 0 0 1 0 40z" fill="#333333" p-id="8152"></path><path d="M66 391a20 20 0 0 1-20-20v-59a20 20 0 0 1 40 0v59a20 20 0 0 1-20 20zM845 356a20 20 0 0 1-9-37.85l50.1-25.3a20 20 0 1 1 18 35.7l-50.1 25.3a19.92 19.92 0 0 1-9 2.15zM875.94 417a20 20 0 0 1-9-37.85L917 353.89a20 20 0 0 1 18 35.7l-50.1 25.3a19.92 19.92 0 0 1-8.96 2.11z" fill="#333333" p-id="8153"></path><path d="M963 331h-68a20 20 0 0 1 0-40h68a20 20 0 0 1 0 40zM964 391h-37a20 20 0 0 1 0-40h37a20 20 0 0 1 0 40z" fill="#333333" p-id="8154"></path><path d="M964 391a20 20 0 0 1-20-20v-59a20 20 0 0 1 40 0v59a20 20 0 0 1-20 20z" fill="#333333" p-id="8155"></path></svg>